<svg width="130" height="130" viewBox="0 0 130 130" fill="none" xmlns="http://www.w3.org/2000/svg">
<g id="Frame 78">
<path id="Ellipse 60" d="M64.9999 123.288C96.8933 123.288 122.707 97.3429 122.707 65.3894C122.707 33.436 96.8933 7.49121 64.9999 7.49121C33.1064 7.49121 7.29297 33.436 7.29297 65.3894C7.29297 97.3429 33.1064 123.288 64.9999 123.288Z" fill="#FBD3C1" stroke="#222222" stroke-width="13"/>
<g id="Vector">
<mask id="path-2-inside-1_22_491" fill="white">
<path fill-rule="evenodd" clip-rule="evenodd" d="M34.2165 92.3605C34.0015 87.554 39.5595 81.4891 46.8721 83.5646C44.7445 86.2738 43.4329 88.4629 42.9635 90.1189C42.2748 92.5702 43.9374 94.5758 46.5124 94.0078C48.3679 93.5971 50.7675 92.1071 53.3863 90.1757C55.2857 96.2931 50.2454 102.611 44.5822 102.795C45.1042 100.877 47.2669 96.5814 44.2401 98.5565C42.1169 99.946 38.2654 102.118 35.414 101.51C34.37 96.0833 41.3624 90.2981 37.1205 91.3205C36.122 91.5761 35.1497 91.9243 34.2165 92.3605Z"/>
</mask>
<path d="M34.2165 92.3605L24.2265 92.8073L24.895 107.756L38.4508 101.42L34.2165 92.3605ZM46.8721 83.5646L54.7367 89.741L63.9451 78.0155L49.6025 73.9446L46.8721 83.5646ZM42.9635 90.1189L33.3425 87.392L33.3394 87.4031L33.3363 87.4141L42.9635 90.1189ZM46.5124 94.0078L48.6666 103.773L48.6736 103.771L46.5124 94.0078ZM53.3863 90.1757L62.9365 87.2104L58.7671 73.7823L47.451 82.1276L53.3863 90.1757ZM44.5822 102.795L34.9331 100.169L31.3793 113.228L44.9061 112.79L44.5822 102.795ZM44.2401 98.5565L38.7754 90.1816L38.764 90.1891L44.2401 98.5565ZM35.414 101.51L25.5941 103.399L26.8465 109.91L33.3307 111.291L35.414 101.51ZM37.1205 91.3205L34.7772 81.599L34.7089 81.6154L34.6409 81.6328L37.1205 91.3205ZM44.2065 91.9137C44.2245 92.3161 44.1779 92.6155 44.1349 92.7987C44.0917 92.9831 44.043 93.0909 44.022 93.1331C43.9885 93.2001 43.9925 93.1714 44.0433 93.13C44.078 93.1017 44.0669 93.1226 43.9983 93.1382C43.8951 93.1617 43.9118 93.1194 44.1416 93.1847L49.6025 73.9446C42.5226 71.9352 35.9714 73.9034 31.3996 77.6337C27.1814 81.0754 23.9509 86.6443 24.2265 92.8073L44.2065 91.9137ZM39.0074 77.3883C36.7359 80.2807 34.3737 83.7537 33.3425 87.392L52.5846 92.8458C52.4948 93.1626 52.4811 93.0346 52.8821 92.3629C53.2543 91.7395 53.8478 90.8729 54.7367 89.741L39.0074 77.3883ZM33.3363 87.4141C32.2337 91.3385 32.7539 96.1225 36.0222 99.8192C39.4158 103.658 44.3565 104.724 48.6666 103.773L44.3582 84.2426C46.0933 83.8598 48.9152 84.2072 51.0059 86.572C52.9714 88.7951 53.0047 91.3507 52.5908 92.8238L33.3363 87.4141ZM48.6736 103.771C52.8677 102.843 56.8424 100.052 59.3216 98.2239L47.451 82.1276C46.2933 82.9814 45.3805 83.59 44.6855 83.9888C44.3477 84.1827 44.135 84.2842 44.0346 84.3276C43.9229 84.3759 44.041 84.3128 44.3512 84.2441L48.6736 103.771ZM43.8361 93.1411C43.8138 93.0692 43.7987 92.9851 43.795 92.9001C43.7914 92.8176 43.7994 92.7567 43.8062 92.723C43.8176 92.6669 43.8184 92.7118 43.7475 92.8088C43.716 92.8519 43.682 92.8886 43.6519 92.9158C43.6217 92.9432 43.6086 92.9489 43.6233 92.9405C43.6451 92.9279 43.8559 92.8132 44.2583 92.8002L44.9061 112.79C51.3347 112.581 56.6789 109.009 59.8931 104.612C63.1807 100.115 64.9709 93.7622 62.9365 87.2104L43.8361 93.1411ZM54.2313 105.421C54.2303 105.424 54.2636 105.33 54.5933 104.406C54.7915 103.85 55.2481 102.586 55.5219 101.302C55.6503 100.7 55.8928 99.4262 55.7963 97.8953C55.7163 96.625 55.2384 92.7067 51.4943 90.0058C47.6653 87.2436 43.6981 88.093 42.3114 88.5028C40.7194 88.9732 39.4768 89.724 38.7754 90.1817L49.7047 106.931C49.6725 106.952 49.528 107.046 49.2875 107.168C49.0626 107.283 48.6116 107.496 47.979 107.683C47.0513 107.957 43.4077 108.833 39.7934 106.226C36.2641 103.68 35.8921 100.045 35.8359 99.1524C35.7633 97.9994 35.9473 97.1982 35.962 97.1294C36.0083 96.9126 36.0155 96.9581 35.756 97.6858C35.6279 98.0448 35.1952 99.2062 34.9331 100.169L54.2313 105.421ZM38.764 90.1891C38.3881 90.4351 37.9652 90.6962 37.5262 90.939C37.0799 91.1858 36.6813 91.3781 36.3519 91.5112C36.0046 91.6517 35.8818 91.6662 35.9649 91.6516C36.0289 91.6403 36.6065 91.5399 37.4974 91.7297L33.3307 111.291C37.7237 112.227 41.6966 110.923 43.8483 110.053C46.2927 109.065 48.4027 107.783 49.7161 106.924L38.764 90.1891ZM45.234 99.6211C45.4249 100.614 45.1639 101.114 45.2955 100.73C45.4307 100.336 45.6851 99.8144 46.2488 98.7791C46.4582 98.3946 46.8626 97.6636 47.1874 96.9859C47.3757 96.5929 48.2614 94.8215 48.4578 92.5981C48.5699 91.329 48.5467 89.0142 47.2011 86.5793C45.7183 83.8961 43.3837 82.4094 41.3319 81.738C38.2017 80.7139 35.3769 81.4544 34.7772 81.599L39.4637 101.042C39.4064 101.056 39.0393 101.145 38.4721 101.183C37.9891 101.217 36.7022 101.267 35.1126 100.746C33.2775 100.146 31.0908 98.7764 29.6963 96.2531C28.439 93.978 28.4446 91.8656 28.5354 90.8382C28.628 89.7894 28.8809 89.0443 28.9686 88.7971C29.0263 88.6342 29.0756 88.515 29.1036 88.4497C29.1323 88.3827 29.1505 88.3447 29.1514 88.3429C29.1527 88.3402 29.1442 88.3579 29.1217 88.4018C29.0994 88.4453 29.0688 88.5038 29.0267 88.5827C28.9348 88.7552 28.8353 88.9369 28.6841 89.2146C28.1605 90.1762 27.1276 92.0546 26.378 94.2396C25.6248 96.435 24.8811 99.6934 25.5941 103.399L45.234 99.6211ZM34.6409 81.6328C33.0395 82.0427 31.4798 82.6012 29.9821 83.3012L38.4508 101.42C38.8197 101.247 39.2045 101.109 39.6001 101.008L34.6409 81.6328Z" fill="#222222" mask="url(#path-2-inside-1_22_491)"/>
</g>
<g id="Group">
<path id="Vector_2" d="M63.8725 41.2641C69.1383 38.9467 74.029 38.4259 78.3154 39.2643C82.6155 40.1047 86.257 42.2916 89.041 45.3578L89.0411 45.3579C91.7936 48.39 93.6933 52.2735 94.548 56.5366L94.5482 56.5372C95.691 62.2756 94.9439 68.7244 91.799 74.7417C90.1363 77.9327 87.8596 80.8504 85.027 83.5232L85.0265 83.5237C82.2156 86.1694 78.8541 88.5755 74.9872 90.7519L74.9859 90.7526C74.7325 90.8942 74.456 90.9639 74.188 90.9705C69.4219 91.0983 65.084 90.699 61.1878 89.759L61.1875 89.7589C57.2484 88.806 53.765 87.303 50.7528 85.2314C44.7254 81.0867 41.0398 75.1079 39.6547 68.9209C38.7084 64.6967 38.8354 60.3634 40.0163 56.4373L40.0165 56.4367C41.2159 52.4662 43.4897 48.9072 46.8373 46.2796L46.838 46.2791C46.8384 46.2788 46.8388 46.2785 46.8392 46.2782C43.6101 46.7893 40.0433 46.3864 36.4342 44.6854L36.4335 44.6851C34.9625 43.989 33.4856 43.0841 32.0346 41.9425C31.2808 41.3501 31.1578 40.2647 31.7476 39.52L31.7568 39.5084L31.7666 39.4974L31.8568 39.3965C32.7697 38.3593 33.7126 37.3899 34.6905 36.5106C35.7036 35.5964 36.7745 34.7503 37.9093 34C41.3709 31.6991 45.2795 30.3989 49.0967 30.6823M63.8725 41.2641L49.0967 30.6823M63.8725 41.2641C63.4887 40.2076 63.224 39.2117 63.0659 38.2748C63.0606 38.1504 63.0409 38.0359 63.0115 37.9256C62.8729 36.9879 62.9301 36.1577 62.9902 35.2875C63.0161 34.9127 63.0424 34.5304 63.0539 34.1289L62.6416 34.0843L62.9687 33.8753L62.7429 33.5242L62.6313 33.3509L62.4302 33.3057L61.1846 33.026L60.9291 32.9686L60.7369 33.1451L60.0528 33.7733L59.9305 33.8857L59.9003 34.0491C59.8445 34.3509 59.7715 34.5845 59.6924 34.8373C59.6626 34.9328 59.6318 35.0311 59.6009 35.1369C59.5389 35.3485 59.483 35.5706 59.448 35.8225C59.163 35.7444 58.8739 35.6724 58.5815 35.6071M63.8725 41.2641L58.5815 35.6071M49.0967 30.6823C52.5375 30.9375 55.8356 32.4647 58.5815 35.6071M49.0967 30.6823L58.5815 35.6071M52.6293 35.1755C51.4161 34.5462 50.1471 34.2041 48.8562 34.1093L48.8559 34.1093C45.8975 33.8906 42.7404 34.9395 39.8349 36.8679L39.8348 36.868C38.8505 37.5209 37.9103 38.2607 37.0149 39.067L37.0142 39.0677C36.5629 39.4724 36.1266 39.8927 35.7001 40.3276C36.4387 40.8093 37.1759 41.2196 37.9038 41.5635C41.3182 43.1687 44.6401 43.3479 47.5147 42.6122C50.1856 41.9283 52.4805 40.4503 54.1078 38.5839C53.4142 38.5849 52.7026 38.6216 51.9812 38.6943L52.6293 35.1755ZM52.6293 35.1755C52.2922 35.1959 51.953 35.2235 51.6117 35.2585C47.9123 35.6353 44.0078 36.8412 40.4317 38.8926C39.5996 39.3646 39.3192 40.4181 39.793 41.2449L39.793 41.2449L39.7949 41.2482C40.2759 42.0733 41.3264 42.3581 42.1556 41.8887L42.1579 41.8873C45.3031 40.084 48.7408 39.023 51.9811 38.6943L52.6293 35.1755ZM59.3234 41.8096L59.3234 41.8095L59.3156 41.8093C59.1715 41.806 59.0325 41.8225 58.9075 41.8481C57.6036 41.9437 56.3624 42.1269 55.1828 42.3914C55.918 41.7519 56.5846 41.0561 57.1722 40.3176C57.505 39.9037 57.8119 39.4732 58.0907 39.0294C58.6841 39.1728 59.2497 39.3501 59.7813 39.5598C59.9337 40.2801 60.1359 41.0205 60.3874 41.7807C60.0768 41.7879 59.7701 41.8 59.4669 41.8151L59.3234 41.8096ZM69.7759 50.6194L70.7454 51.7798C70.7843 51.8392 70.8299 51.9063 70.8713 51.9586L70.873 51.9608C70.8877 51.9795 70.9403 52.0463 71.0138 52.098C71.037 52.1143 71.0848 52.1455 71.152 52.1676C71.1908 52.1804 71.2543 52.1958 71.3315 52.1929C71.3563 52.1969 71.3847 52.2013 71.4163 52.2058C71.5329 52.2223 71.6954 52.2414 71.8796 52.2509C72.2258 52.269 72.736 52.2597 73.1508 52.0694C73.3697 51.969 73.5913 51.8046 73.7288 51.5413C73.8676 51.2753 73.8877 50.9713 73.8201 50.6559C73.6917 50.0568 73.2238 49.3051 72.3528 48.3347L72.3527 48.3345C70.6753 46.4674 68.7811 44.9372 66.732 43.8274C70.7769 42.3115 74.455 42.0256 77.6606 42.6494C81.1841 43.3351 84.1791 45.1318 86.4761 47.6635L86.4763 47.6638C88.8028 50.2239 90.4236 53.5315 91.1577 57.1999L91.1577 57.2001C92.1591 62.1979 91.4994 67.8415 88.7307 73.1437L88.7304 73.1442C87.2553 75.9767 85.2143 78.591 82.6488 81.0125C80.1449 83.3742 77.1387 85.5432 73.661 87.5353C69.3467 87.6204 65.4572 87.2466 61.9959 86.408L61.9953 86.4078C58.4571 85.5552 55.3684 84.2152 52.7168 82.3946C47.4475 78.7699 44.2344 73.5599 43.0261 68.1731L43.026 68.1729C42.2051 64.5225 42.314 60.7926 43.3288 57.4247L43.3289 57.4244C44.3265 54.1061 46.2223 51.1526 48.9814 48.9845C51.6435 46.8954 55.1457 45.517 59.5114 45.2544C63.2794 45.4245 66.8612 47.3784 69.7759 50.6194Z" fill="#222222" stroke="black"/>
<path id="Vector_3" d="M85.382 46.341L84.026 45.3165C85.8034 44.3025 87.4487 43.6123 89.1404 43.296C88.944 44.8269 88.558 46.52 88.0373 48.1466C87.8875 48.6145 87.7321 49.0594 87.5748 49.4759L86.4252 47.514L86.0207 46.8236L85.382 46.341Z" fill="white" stroke="#222222" stroke-width="8"/>
<path id="Vector_4" d="M41.3338 81.3229L41.796 81.3234L41.987 81.5621L42.096 81.6983C41.846 81.5692 41.5919 81.444 41.3338 81.3229ZM52.8918 92.1694C52.3343 91.2669 51.6874 90.3072 50.9444 89.334L54.3259 91.1613L54.5908 94.7191L54.3996 94.845C53.9658 93.999 53.4648 93.0967 52.8918 92.1694ZM52.5198 101.788C55.2567 100.99 56.2297 100.705 56.5754 100.603L56.5693 100.607L52.5197 101.788L52.5197 101.788L52.2763 101.859C52.359 101.835 52.4401 101.811 52.5198 101.788C52.5198 101.788 52.5198 101.788 52.5198 101.788Z" fill="#222222" stroke="#222222" stroke-width="12"/>
</g>
</g>
</svg>
